<?xml version="1.0" encoding="UTF-8"?>
<!DOCTYPE svg PUBLIC "-//W3C//DTD SVG 1.1//EN" "http://www.w3.org/Graphics/SVG/1.1/DTD/svg11.dtd">
<svg xmlns="http://www.w3.org/2000/svg" version="1.1" width="500px" height="500px" style="shape-rendering:geometricPrecision; text-rendering:geometricPrecision; image-rendering:optimizeQuality; fill-rule:evenodd; clip-rule:evenodd" xmlns:xlink="http://www.w3.org/1999/xlink">
<g><path style="opacity:0.671" fill="#4e6458" d="M 243.5,156.5 C 229.459,155.851 215.792,156.518 202.5,158.5C 201.596,157.791 201.263,156.791 201.5,155.5C 215.677,155.171 229.677,155.504 243.5,156.5 Z"/></g>
<g><path style="opacity:0.708" fill="#5a5e51" d="M 364.5,157.5 C 352.34,156.34 340.007,156.173 327.5,157C 326.956,157.717 326.289,158.217 325.5,158.5C 325.414,157.504 325.748,156.671 326.5,156C 339.513,155.167 352.513,155.334 365.5,156.5C 365.376,157.107 365.043,157.44 364.5,157.5 Z"/></g>
<g><path style="opacity:0.695" fill="#545a4c" d="M 423.5,157.5 C 417.676,156.834 411.676,156.5 405.5,156.5C 399.128,156.504 393.128,157.171 387.5,158.5C 386.522,158.189 385.855,157.522 385.5,156.5C 398.5,155.167 411.5,155.167 424.5,156.5C 424.376,157.107 424.043,157.44 423.5,157.5 Z"/></g>
<g><path style="opacity:1" fill="#040507" d="M 174.5,160.5 C 173.566,161.568 173.232,162.901 173.5,164.5C 172.097,167.909 171.43,171.575 171.5,175.5C 169.75,178.355 168.917,181.689 169,185.5C 168.59,220.696 168.424,255.862 168.5,291C 170.201,298.114 171.534,305.281 172.5,312.5C 172.291,313.086 171.957,313.586 171.5,314C 157.131,313.847 143.131,314.68 129.5,316.5C 128.833,316.5 128.167,316.5 127.5,316.5C 124.442,314.757 122.442,312.09 121.5,308.5C 120.68,302.203 120.347,295.869 120.5,289.5C 122.074,287.898 122.741,285.898 122.5,283.5C 124.771,281.388 126.104,278.721 126.5,275.5C 128.369,273.966 129.702,271.966 130.5,269.5C 133.848,266.149 136.848,262.482 139.5,258.5C 148.613,249.871 155.113,239.538 159,227.5C 159.808,223.973 159.641,220.64 158.5,217.5C 156.367,219.091 154.701,221.091 153.5,223.5C 145.558,238.948 134.225,251.448 119.5,261C 115.121,263.694 110.454,265.527 105.5,266.5C 100.142,266.262 94.8086,266.096 89.5,266C 87.8757,267.117 86.8757,268.617 86.5,270.5C 87.4964,278.809 89.4964,286.809 92.5,294.5C 94.1747,296.531 95.8414,298.531 97.5,300.5C 100.485,305.798 103.485,311.132 106.5,316.5C 106.167,316.5 105.833,316.5 105.5,316.5C 101.833,316.5 98.1667,316.5 94.5,316.5C 93.7455,314.534 92.5788,314.2 91,315.5C 90.6667,313.167 90.3333,310.833 90,308.5C 89.2411,306.937 88.0744,305.937 86.5,305.5C 85.596,304.791 85.2627,303.791 85.5,302.5C 84.9901,297.609 83.9901,292.942 82.5,288.5C 80.3957,280.776 79.2291,272.776 79,264.5C 77.2515,240.569 78.9182,216.903 84,193.5C 87.1866,180.278 94.0199,169.444 104.5,161C 108.531,158.545 112.864,156.879 117.5,156C 137.167,155.333 156.833,155.333 176.5,156C 175.733,157.47 175.067,158.97 174.5,160.5 Z M 152.5,210.5 C 149.179,215.486 145.179,219.82 140.5,223.5C 135.978,225.264 131.645,227.264 127.5,229.5C 123.454,229.952 119.454,230.619 115.5,231.5C 110.463,231.587 105.463,231.254 100.5,230.5C 94.9153,222.045 96.9153,215.545 106.5,211C 116.205,210.617 125.872,211.117 135.5,212.5C 141.264,212.533 146.93,211.866 152.5,210.5 Z M 158.5,217.5 C 158.228,220.732 156.562,222.732 153.5,223.5C 154.701,221.091 156.367,219.091 158.5,217.5 Z"/></g>
<g><path style="opacity:1" fill="#040604" d="M 243.5,156.5 C 243.833,156.5 244.167,156.5 244.5,156.5C 245.848,157.186 247.015,158.186 248,159.5C 249.356,158.62 250.856,158.286 252.5,158.5C 263.072,161.737 271.738,167.737 278.5,176.5C 290.981,194.396 296.981,214.396 296.5,236.5C 296.321,256.222 291.321,274.556 281.5,291.5C 276.833,298.167 271.167,303.833 264.5,308.5C 256.741,312.197 248.741,314.864 240.5,316.5C 229.167,316.5 217.833,316.5 206.5,316.5C 204.381,318.087 202.714,317.754 201.5,315.5C 203.293,310.996 204.459,306.329 205,301.5C 205.915,292.853 206.582,284.186 207,275.5C 207.5,249.502 207.667,223.502 207.5,197.5C 207.898,188.932 207.231,180.599 205.5,172.5C 205.735,167.454 204.735,162.787 202.5,158.5C 215.792,156.518 229.459,155.851 243.5,156.5 Z M 237.5,203.5 C 239.8,206.324 242.8,208.157 246.5,209C 255.222,209.591 263.889,209.091 272.5,207.5C 276.935,206.891 280.602,208.224 283.5,211.5C 286.455,221.001 287.121,230.668 285.5,240.5C 284.129,242.936 283.129,245.603 282.5,248.5C 280.078,252.344 277.411,256.01 274.5,259.5C 270.809,261.541 267.142,263.541 263.5,265.5C 261.708,265.366 260.042,265.699 258.5,266.5C 250.72,266.868 243.053,266.202 235.5,264.5C 233.537,263.18 231.537,261.846 229.5,260.5C 228.164,257.162 226.831,253.829 225.5,250.5C 224.425,233.851 224.258,217.184 225,200.5C 225.196,198.714 226.029,197.381 227.5,196.5C 230.869,198.884 234.203,201.217 237.5,203.5 Z"/></g>
<g><path style="opacity:1" fill="#050504" d="M 364.5,157.5 C 364.5,157.833 364.5,158.167 364.5,158.5C 363.566,159.568 363.232,160.901 363.5,162.5C 363.203,176.267 367.536,188.6 376.5,199.5C 378.482,202.81 380.815,205.81 383.5,208.5C 391.866,220.21 399.866,232.21 407.5,244.5C 407.56,245.043 407.893,245.376 408.5,245.5C 409.913,235.297 409.58,225.297 407.5,215.5C 405.084,201.836 401.417,188.503 396.5,175.5C 396.913,172.68 395.913,170.68 393.5,169.5C 391.25,166.001 389.25,162.335 387.5,158.5C 393.128,157.171 399.128,156.504 405.5,156.5C 411.676,156.5 417.676,156.834 423.5,157.5C 423.567,158.959 423.234,160.292 422.5,161.5C 420.598,167.223 419.431,173.223 419,179.5C 418.5,188.827 418.334,198.161 418.5,207.5C 418.333,227.503 418.5,247.503 419,267.5C 422.027,276.245 423.193,285.245 422.5,294.5C 418.331,311.646 407.331,319.646 389.5,318.5C 387.784,318.371 386.117,318.038 384.5,317.5C 383.508,317.672 382.842,317.338 382.5,316.5C 383.321,312.716 384.321,309.049 385.5,305.5C 385.666,301.486 385.499,297.486 385,293.5C 383.431,288.7 381.597,284.034 379.5,279.5C 379.876,276.077 378.543,273.744 375.5,272.5C 373.336,270.178 371.669,267.511 370.5,264.5C 369.587,262.914 369.587,261.414 370.5,260C 369.5,259.667 368.5,259.333 367.5,259C 367.833,258.667 368.167,258.333 368.5,258C 365.112,253.923 361.445,250.09 357.5,246.5C 355.025,244.23 353.025,241.563 351.5,238.5C 351.396,235.061 349.73,232.728 346.5,231.5C 345.974,229.77 344.974,228.436 343.5,227.5C 342.246,224.907 340.58,222.573 338.5,220.5C 336.347,237.925 337.681,254.925 342.5,271.5C 345.466,287.758 351.466,302.758 360.5,316.5C 351.167,316.5 341.833,316.5 332.5,316.5C 329.5,316.5 326.5,316.5 323.5,316.5C 322.903,316.265 322.57,315.765 322.5,315C 324.105,309.193 325.438,303.359 326.5,297.5C 327.314,295.369 327.814,293.036 328,290.5C 328.831,259.997 328.664,229.664 327.5,199.5C 321.92,188.792 320.087,177.459 322,165.5C 322.67,162.826 323.837,160.493 325.5,158.5C 326.289,158.217 326.956,157.717 327.5,157C 340.007,156.173 352.34,156.34 364.5,157.5 Z"/></g>
<g><path style="opacity:1" fill="#5b6f65" d="M 244.5,156.5 C 247.428,156.565 250.095,157.232 252.5,158.5C 250.856,158.286 249.356,158.62 248,159.5C 247.015,158.186 245.848,157.186 244.5,156.5 Z"/></g>
<g><path style="opacity:0.208" fill="#8bb2a2" d="M 202.5,158.5 C 204.735,162.787 205.735,167.454 205.5,172.5C 204.216,168.015 203.216,163.349 202.5,158.5 Z"/></g>
<g><path style="opacity:1" fill="#debab8" d="M 363.5,162.5 C 365.607,163.468 367.941,163.802 370.5,163.5C 369.069,171.192 369.235,178.859 371,186.5C 373.709,190.458 375.542,194.792 376.5,199.5C 367.536,188.6 363.203,176.267 363.5,162.5 Z"/></g>
<g><path style="opacity:1" fill="#5c6a50" d="M 393.5,169.5 C 395.913,170.68 396.913,172.68 396.5,175.5C 394.992,173.819 393.992,171.819 393.5,169.5 Z"/></g>
<g><path style="opacity:1" fill="#788dcc" d="M 173.5,164.5 C 175.523,164.715 177.856,164.715 180.5,164.5C 178.443,176.068 177.276,187.735 177,199.5C 176.5,225.165 176.333,250.831 176.5,276.5C 175.953,257.274 174.786,237.941 173,218.5C 170.747,247.535 171.08,276.535 174,305.5C 174.841,308.51 175.674,311.51 176.5,314.5C 176.324,318.275 174.657,319.275 171.5,317.5C 172.791,317.737 173.791,317.404 174.5,316.5C 175.043,316.44 175.376,316.107 175.5,315.5C 171.882,302.778 170.049,289.778 170,276.5C 169.333,246.833 169.333,217.167 170,187.5C 170.501,183.49 171.001,179.49 171.5,175.5C 171.43,171.575 172.097,167.909 173.5,164.5 Z"/></g>
<g><path style="opacity:0.298" fill="#6ca284" d="M 205.5,172.5 C 207.231,180.599 207.898,188.932 207.5,197.5C 206.399,189.35 205.732,181.017 205.5,172.5 Z"/></g>
<g><path style="opacity:1" fill="#ddd7af" d="M 364.5,158.5 C 364.414,159.496 364.748,160.329 365.5,161C 367.167,161.333 368.833,161.667 370.5,162C 371.516,162.519 372.182,163.353 372.5,164.5C 369.54,173.497 370.374,182.164 375,190.5C 378.113,195.729 380.947,201.062 383.5,206.5C 383.5,207.167 383.5,207.833 383.5,208.5C 380.815,205.81 378.482,202.81 376.5,199.5C 375.542,194.792 373.709,190.458 371,186.5C 369.235,178.859 369.069,171.192 370.5,163.5C 367.941,163.802 365.607,163.468 363.5,162.5C 363.232,160.901 363.566,159.568 364.5,158.5 Z"/></g>
<g><path style="opacity:1" fill="#eac4c2" d="M 427.5,183.5 C 426.833,186.167 426.167,188.833 425.5,191.5C 425.66,189.801 425.494,188.134 425,186.5C 425.101,193.379 424.101,200.046 422,206.5C 421.667,205.167 421.333,203.833 421,202.5C 420.95,204.744 420.117,206.411 418.5,207.5C 418.334,198.161 418.5,188.827 419,179.5C 419.431,173.223 420.598,167.223 422.5,161.5C 425.281,160.177 427.947,160.344 430.5,162C 431.059,162.725 431.392,163.558 431.5,164.5C 429.902,170.824 428.569,177.157 427.5,183.5 Z"/></g>
<g><path style="opacity:0.658" fill="#e8f1ba" d="M 427.5,183.5 C 426.594,213.155 426.261,242.822 426.5,272.5C 425.502,245.672 425.169,218.672 425.5,191.5C 426.167,188.833 426.833,186.167 427.5,183.5 Z"/></g>
<g><path style="opacity:1" fill="#a1be95" d="M 283.5,211.5 C 280.602,208.224 276.935,206.891 272.5,207.5C 263.889,209.091 255.222,209.591 246.5,209C 242.8,208.157 239.8,206.324 237.5,203.5C 237.218,202.222 236.551,201.222 235.5,200.5C 238.966,201.031 242.466,201.365 246,201.5C 254.444,199.979 262.944,199.479 271.5,200C 277.344,202.012 281.344,205.846 283.5,211.5 Z"/></g>
<g><path style="opacity:1" fill="#8d91d2" d="M 140.5,203.5 C 139.737,204.268 138.737,204.768 137.5,205C 134.167,205.167 130.833,205.333 127.5,205.5C 118.837,204.75 110.17,204.583 101.5,205C 99.0646,206.715 96.3979,207.882 93.5,208.5C 93.5,210.167 93.5,211.833 93.5,213.5C 92.5,213.5 91.5,213.5 90.5,213.5C 90.6159,216.86 90.9492,220.193 91.5,223.5C 87.561,209.569 93.061,202.569 108,202.5C 118.793,204.537 129.626,204.87 140.5,203.5 Z"/></g>
<g><path style="opacity:1" fill="#8897dc" d="M 154.5,207.5 C 150.855,208.652 147.188,209.818 143.5,211C 138.98,211.814 134.646,211.647 130.5,210.5C 132.527,210.662 134.527,210.495 136.5,210C 140.368,207.973 144.368,206.306 148.5,205C 148.273,203.865 147.94,202.698 147.5,201.5C 145.382,202.946 143.049,203.613 140.5,203.5C 149.874,199.289 156.374,192.289 160,182.5C 160.515,191.43 158.682,199.763 154.5,207.5 Z"/></g>
<g><path style="opacity:1" fill="#9199ee" d="M 130.5,210.5 C 121.548,209.389 112.548,209.223 103.5,210C 97.889,213.623 94.7223,218.789 94,225.5C 93.3292,224.748 92.4959,224.414 91.5,224.5C 91.5,224.167 91.5,223.833 91.5,223.5C 90.9492,220.193 90.6159,216.86 90.5,213.5C 91.5,213.5 92.5,213.5 93.5,213.5C 93.5,211.833 93.5,210.167 93.5,208.5C 96.3979,207.882 99.0646,206.715 101.5,205C 110.17,204.583 118.837,204.75 127.5,205.5C 130.833,205.333 134.167,205.167 137.5,205C 138.737,204.768 139.737,204.268 140.5,203.5C 143.049,203.613 145.382,202.946 147.5,201.5C 147.94,202.698 148.273,203.865 148.5,205C 144.368,206.306 140.368,207.973 136.5,210C 134.527,210.495 132.527,210.662 130.5,210.5 Z"/></g>
<g><path style="opacity:1" fill="#99baea" d="M 154.5,207.5 C 154.573,209.027 153.906,210.027 152.5,210.5C 146.93,211.866 141.264,212.533 135.5,212.5C 125.872,211.117 116.205,210.617 106.5,211C 96.9153,215.545 94.9153,222.045 100.5,230.5C 96.6774,229.754 93.6774,227.754 91.5,224.5C 92.4959,224.414 93.3292,224.748 94,225.5C 94.7223,218.789 97.889,213.623 103.5,210C 112.548,209.223 121.548,209.389 130.5,210.5C 134.646,211.647 138.98,211.814 143.5,211C 147.188,209.818 150.855,208.652 154.5,207.5 Z"/></g>
<g><path style="opacity:1" fill="#e3c5b0" d="M 425.5,191.5 C 425.169,218.672 425.502,245.672 426.5,272.5C 430.101,282.541 431.268,292.875 430,303.5C 429.295,306.476 428.129,309.142 426.5,311.5C 429.396,302.002 429.063,292.669 425.5,283.5C 424.394,285.284 424.394,287.118 425.5,289C 425.141,291.296 424.141,293.129 422.5,294.5C 423.193,285.245 422.027,276.245 419,267.5C 418.5,247.503 418.333,227.503 418.5,207.5C 420.117,206.411 420.95,204.744 421,202.5C 421.333,203.833 421.667,205.167 422,206.5C 424.101,200.046 425.101,193.379 425,186.5C 425.494,188.134 425.66,189.801 425.5,191.5 Z"/></g>
<g><path style="opacity:0.409" fill="#91c5e1" d="M 174.5,160.5 C 174.369,161.239 174.536,161.906 175,162.5C 176.231,161.892 177.564,161.559 179,161.5C 180.973,161.309 182.473,161.976 183.5,163.5C 179.956,175.89 178.122,188.557 178,201.5C 176.816,238.897 177.65,276.231 180.5,313.5C 179.135,310.264 178.135,306.931 177.5,303.5C 177.68,294.472 177.347,285.472 176.5,276.5C 176.333,250.831 176.5,225.165 177,199.5C 177.276,187.735 178.443,176.068 180.5,164.5C 177.856,164.715 175.523,164.715 173.5,164.5C 173.232,162.901 173.566,161.568 174.5,160.5 Z"/></g>
<g><path style="opacity:1" fill="#2c4041" d="M 140.5,223.5 C 137.672,228.411 133.338,230.411 127.5,229.5C 131.645,227.264 135.978,225.264 140.5,223.5 Z"/></g>
<g><path style="opacity:0.561" fill="#c6ca91" d="M 383.5,206.5 C 391.833,217.833 400.167,229.167 408.5,240.5C 408.768,242.099 408.434,243.432 407.5,244.5C 399.866,232.21 391.866,220.21 383.5,208.5C 383.5,207.833 383.5,207.167 383.5,206.5 Z"/></g>
<g><path style="opacity:0.639" fill="#7e9955" d="M 407.5,215.5 C 409.58,225.297 409.913,235.297 408.5,245.5C 407.893,245.376 407.56,245.043 407.5,244.5C 408.434,243.432 408.768,242.099 408.5,240.5C 407.668,232.195 407.335,223.862 407.5,215.5 Z"/></g>
<g><path style="opacity:0.373" fill="#568084" d="M 100.5,230.5 C 105.463,231.254 110.463,231.587 115.5,231.5C 113.696,232.162 111.696,232.495 109.5,232.5C 106.186,232.657 103.186,231.991 100.5,230.5 Z"/></g>
<g><path style="opacity:1" fill="#304222" d="M 346.5,231.5 C 349.73,232.728 351.396,235.061 351.5,238.5C 349.453,236.45 347.786,234.117 346.5,231.5 Z"/></g>
<g><path style="opacity:0.306" fill="#88d0ad" d="M 226.5,193.5 C 229.72,195.603 232.72,197.936 235.5,200.5C 236.551,201.222 237.218,202.222 237.5,203.5C 234.203,201.217 230.869,198.884 227.5,196.5C 226.029,197.381 225.196,198.714 225,200.5C 224.258,217.184 224.425,233.851 225.5,250.5C 224.732,249.737 224.232,248.737 224,247.5C 223.5,229.836 223.333,212.17 223.5,194.5C 224.791,194.737 225.791,194.404 226.5,193.5 Z"/></g>
<g><path style="opacity:1" fill="#6e91df" d="M 158.5,217.5 C 159.641,220.64 159.808,223.973 159,227.5C 155.113,239.538 148.613,249.871 139.5,258.5C 133.317,263.426 126.651,267.592 119.5,271C 111.785,273.84 103.785,275.34 95.5,275.5C 95.1307,279.768 94.1307,283.768 92.5,287.5C 90.007,281.429 89.007,275.095 89.5,268.5C 95.0984,268.844 100.432,268.178 105.5,266.5C 110.454,265.527 115.121,263.694 119.5,261C 134.225,251.448 145.558,238.948 153.5,223.5C 156.562,222.732 158.228,220.732 158.5,217.5 Z"/></g>
<g><path style="opacity:1" fill="#a3bc94" d="M 226.5,193.5 C 225.791,194.404 224.791,194.737 223.5,194.5C 223.333,212.17 223.5,229.836 224,247.5C 224.232,248.737 224.732,249.737 225.5,250.5C 226.831,253.829 228.164,257.162 229.5,260.5C 221.884,254.905 217.717,247.238 217,237.5C 216.333,222.5 216.333,207.5 217,192.5C 217.68,190.487 219.013,189.154 221,188.5C 223.316,189.65 225.15,191.317 226.5,193.5 Z"/></g>
<g><path style="opacity:1" fill="#c6cc98" d="M 343.5,227.5 C 344.974,228.436 345.974,229.77 346.5,231.5C 345.264,241.894 345.264,252.561 346.5,263.5C 344.932,261.189 344.098,258.522 344,255.5C 343.5,246.173 343.334,236.839 343.5,227.5 Z"/></g>
<g><path style="opacity:1" fill="#3e6b5c" d="M 285.5,240.5 C 285.982,243.831 284.982,246.497 282.5,248.5C 283.129,245.603 284.129,242.936 285.5,240.5 Z"/></g>
<g><path style="opacity:1" fill="#aec48f" d="M 278.5,176.5 C 286.829,183.44 292.996,192.106 297,202.5C 306.993,229.504 306.993,256.504 297,283.5C 292.707,294.438 286.207,303.771 277.5,311.5C 279.874,307.763 281.874,303.763 283.5,299.5C 281.951,297.098 281.284,294.432 281.5,291.5C 291.321,274.556 296.321,256.222 296.5,236.5C 296.981,214.396 290.981,194.396 278.5,176.5 Z"/></g>
<g><path style="opacity:1" fill="#c9ba9f" d="M 343.5,227.5 C 343.334,236.839 343.5,246.173 344,255.5C 344.098,258.522 344.932,261.189 346.5,263.5C 348.162,271.473 349.828,279.473 351.5,287.5C 350.417,287.461 349.417,287.127 348.5,286.5C 347.339,281.523 346.339,276.523 345.5,271.5C 344.5,271.5 343.5,271.5 342.5,271.5C 337.681,254.925 336.347,237.925 338.5,220.5C 340.58,222.573 342.246,224.907 343.5,227.5 Z"/></g>
<g><path style="opacity:1" fill="#314325" d="M 357.5,246.5 C 361.445,250.09 365.112,253.923 368.5,258C 368.167,258.333 367.833,258.667 367.5,259C 368.5,259.333 369.5,259.667 370.5,260C 369.587,261.414 369.587,262.914 370.5,264.5C 365.679,258.862 361.346,252.862 357.5,246.5 Z"/></g>
<g><path style="opacity:1" fill="#274e43" d="M 274.5,259.5 C 272.022,263.352 268.355,265.352 263.5,265.5C 267.142,263.541 270.809,261.541 274.5,259.5 Z"/></g>
<g><path style="opacity:0.569" fill="#528777" d="M 235.5,264.5 C 243.053,266.202 250.72,266.868 258.5,266.5C 253.015,267.652 247.349,267.818 241.5,267C 238.949,266.998 236.949,266.164 235.5,264.5 Z"/></g>
<g><path style="opacity:1" fill="#0b0d1c" d="M 105.5,266.5 C 100.432,268.178 95.0984,268.844 89.5,268.5C 89.007,275.095 90.007,281.429 92.5,287.5C 94.4414,291.718 96.1081,296.051 97.5,300.5C 95.8414,298.531 94.1747,296.531 92.5,294.5C 89.4964,286.809 87.4964,278.809 86.5,270.5C 86.8757,268.617 87.8757,267.117 89.5,266C 94.8086,266.096 100.142,266.262 105.5,266.5 Z"/></g>
<g><path style="opacity:1" fill="#316366" d="M 130.5,269.5 C 129.702,271.966 128.369,273.966 126.5,275.5C 126.845,272.802 128.178,270.802 130.5,269.5 Z"/></g>
<g><path style="opacity:1" fill="#405334" d="M 375.5,272.5 C 378.543,273.744 379.876,276.077 379.5,279.5C 377.929,277.365 376.596,275.032 375.5,272.5 Z"/></g>
<g><path style="opacity:1" fill="#33686a" d="M 126.5,275.5 C 126.104,278.721 124.771,281.388 122.5,283.5C 122.794,280.246 124.127,277.579 126.5,275.5 Z"/></g>
<g><path style="opacity:0.329" fill="#85b586" d="M 327.5,199.5 C 328.664,229.664 328.831,259.997 328,290.5C 327.814,293.036 327.314,295.369 326.5,297.5C 327.432,264.846 327.766,232.18 327.5,199.5 Z"/></g>
<g><path style="opacity:0.549" fill="#6ac4e9" d="M 139.5,258.5 C 136.848,262.482 133.848,266.149 130.5,269.5C 130.265,268.903 129.765,268.57 129,268.5C 119.275,274.186 108.775,277.019 97.5,277C 96.9415,277.725 96.6082,278.558 96.5,279.5C 97.2974,282.82 97.9641,286.154 98.5,289.5C 96.2449,285.234 95.2449,280.568 95.5,275.5C 103.785,275.34 111.785,273.84 119.5,271C 126.651,267.592 133.317,263.426 139.5,258.5 Z"/></g>
<g><path style="opacity:0.447" fill="#448886" d="M 122.5,283.5 C 122.741,285.898 122.074,287.898 120.5,289.5C 120.259,287.102 120.926,285.102 122.5,283.5 Z"/></g>
<g><path style="opacity:1" fill="#719bdc" d="M 95.5,275.5 C 95.2449,280.568 96.2449,285.234 98.5,289.5C 102.238,299.655 106.572,309.655 111.5,319.5C 111.5,320.833 111.5,322.167 111.5,323.5C 106.833,323.5 102.167,323.5 97.5,323.5C 96.2502,323.423 95.4169,322.756 95,321.5C 94.5065,319.866 94.3398,318.199 94.5,316.5C 98.1667,316.5 101.833,316.5 105.5,316.5C 102.972,317.166 100.306,317.832 97.5,318.5C 98.8532,319.524 99.5198,320.857 99.5,322.5C 103.167,322.5 106.833,322.5 110.5,322.5C 109.963,319.964 108.63,317.964 106.5,316.5C 103.485,311.132 100.485,305.798 97.5,300.5C 96.1081,296.051 94.4414,291.718 92.5,287.5C 94.1307,283.768 95.1307,279.768 95.5,275.5 Z"/></g>
<g><path style="opacity:0.173" fill="#65a1a3" d="M 82.5,288.5 C 83.9901,292.942 84.9901,297.609 85.5,302.5C 83.4983,298.167 82.4983,293.5 82.5,288.5 Z"/></g>
<g><path style="opacity:1" fill="#c6c2b1" d="M 342.5,271.5 C 343.5,271.5 344.5,271.5 345.5,271.5C 346.339,276.523 347.339,281.523 348.5,286.5C 349.417,287.127 350.417,287.461 351.5,287.5C 355.916,299.836 361.583,311.669 368.5,323C 355.989,324.644 343.322,324.978 330.5,324C 329.667,321.919 329.667,319.752 330.5,317.5C 327.941,317.802 325.607,317.468 323.5,316.5C 326.5,316.5 329.5,316.5 332.5,316.5C 332.5,318.5 332.5,320.5 332.5,322.5C 343.838,322.667 355.172,322.5 366.5,322C 364.5,321.667 362.5,321.333 360.5,321C 363.106,319.35 363.106,317.85 360.5,316.5C 351.466,302.758 345.466,287.758 342.5,271.5 Z"/></g>
<g><path style="opacity:0.016" fill="#66a6aa" d="M 120.5,289.5 C 120.347,295.869 120.68,302.203 121.5,308.5C 119.961,305.135 119.294,301.469 119.5,297.5C 119.503,294.645 119.836,291.978 120.5,289.5 Z"/></g>
<g><path style="opacity:1" fill="#c2c598" d="M 281.5,291.5 C 281.284,294.432 281.951,297.098 283.5,299.5C 281.874,303.763 279.874,307.763 277.5,311.5C 273.224,315.472 268.224,318.139 262.5,319.5C 264.394,315.955 267.394,313.955 271.5,313.5C 269.345,311.429 267.011,309.763 264.5,308.5C 271.167,303.833 276.833,298.167 281.5,291.5 Z"/></g>
<g><path style="opacity:1" fill="#263c3f" d="M 86.5,305.5 C 88.0744,305.937 89.2411,306.937 90,308.5C 90.3333,310.833 90.6667,313.167 91,315.5C 92.5788,314.2 93.7455,314.534 94.5,316.5C 92.5759,317.96 90.9092,317.626 89.5,315.5C 87.9054,312.32 86.9054,308.987 86.5,305.5 Z"/></g>
<g><path style="opacity:1" fill="#384633" d="M 385.5,305.5 C 384.321,309.049 383.321,312.716 382.5,316.5C 380.748,316.582 379.748,315.749 379.5,314C 381.884,311.383 383.884,308.55 385.5,305.5 Z"/></g>
<g><path style="opacity:1" fill="#d9c9a3" d="M 264.5,308.5 C 267.011,309.763 269.345,311.429 271.5,313.5C 267.394,313.955 264.394,315.955 262.5,319.5C 262.158,320.338 261.492,320.672 260.5,320.5C 256.166,321.337 251.832,321.837 247.5,322C 248.167,321.333 248.833,320.667 249.5,320C 246.65,318.209 243.65,317.042 240.5,316.5C 248.741,314.864 256.741,312.197 264.5,308.5 Z"/></g>
<g><path style="opacity:1" fill="#020215" d="M 171.5,175.5 C 171.001,179.49 170.501,183.49 170,187.5C 169.333,217.167 169.333,246.833 170,276.5C 170.049,289.778 171.882,302.778 175.5,315.5C 175.376,316.107 175.043,316.44 174.5,316.5C 159.5,316.5 144.5,316.5 129.5,316.5C 143.131,314.68 157.131,313.847 171.5,314C 171.957,313.586 172.291,313.086 172.5,312.5C 171.534,305.281 170.201,298.114 168.5,291C 168.424,255.862 168.59,220.696 169,185.5C 168.917,181.689 169.75,178.355 171.5,175.5 Z"/></g>
<g><path style="opacity:1" fill="#d2b9bf" d="M 332.5,316.5 C 341.833,316.5 351.167,316.5 360.5,316.5C 363.106,317.85 363.106,319.35 360.5,321C 362.5,321.333 364.5,321.667 366.5,322C 355.172,322.5 343.838,322.667 332.5,322.5C 332.5,320.5 332.5,318.5 332.5,316.5 Z"/></g>
<g><path style="opacity:1" fill="#8297eb" d="M 176.5,276.5 C 177.347,285.472 177.68,294.472 177.5,303.5C 177.213,308.798 177.88,313.964 179.5,319C 179.415,320.107 179.081,321.107 178.5,322C 164.155,322.833 149.822,322.666 135.5,321.5C 134.482,320.148 133.149,319.148 131.5,318.5C 144.817,317.501 158.15,317.167 171.5,317.5C 174.657,319.275 176.324,318.275 176.5,314.5C 175.674,311.51 174.841,308.51 174,305.5C 171.08,276.535 170.747,247.535 173,218.5C 174.786,237.941 175.953,257.274 176.5,276.5 Z"/></g>
<g><path style="opacity:1" fill="#edc0cd" d="M 426.5,311.5 C 424.5,316.833 420.833,320.5 415.5,322.5C 410.847,322.739 406.347,323.739 402,325.5C 398.849,324.907 395.682,324.407 392.5,324C 391.029,322.417 390.029,320.583 389.5,318.5C 407.331,319.646 418.331,311.646 422.5,294.5C 424.141,293.129 425.141,291.296 425.5,289C 424.394,287.118 424.394,285.284 425.5,283.5C 429.063,292.669 429.396,302.002 426.5,311.5 Z"/></g>
<g><path style="opacity:1" fill="#7d95ed" d="M 105.5,316.5 C 105.833,316.5 106.167,316.5 106.5,316.5C 108.63,317.964 109.963,319.964 110.5,322.5C 106.833,322.5 103.167,322.5 99.5,322.5C 99.5198,320.857 98.8532,319.524 97.5,318.5C 100.306,317.832 102.972,317.166 105.5,316.5 Z"/></g>
<g><path style="opacity:1" fill="#8dafe4" d="M 177.5,303.5 C 178.135,306.931 179.135,310.264 180.5,313.5C 182.244,316.942 182.911,320.442 182.5,324C 166.5,324.667 150.5,324.667 134.5,324C 130.544,322.882 128.211,320.382 127.5,316.5C 128.167,316.5 128.833,316.5 129.5,316.5C 144.5,316.5 159.5,316.5 174.5,316.5C 173.791,317.404 172.791,317.737 171.5,317.5C 158.15,317.167 144.817,317.501 131.5,318.5C 133.149,319.148 134.482,320.148 135.5,321.5C 149.822,322.666 164.155,322.833 178.5,322C 179.081,321.107 179.415,320.107 179.5,319C 177.88,313.964 177.213,308.798 177.5,303.5 Z"/></g>
<g><path style="opacity:0.958" fill="#ecd7c1" d="M 206.5,316.5 C 217.833,316.5 229.167,316.5 240.5,316.5C 243.65,317.042 246.65,318.209 249.5,320C 248.833,320.667 248.167,321.333 247.5,322C 251.832,321.837 256.166,321.337 260.5,320.5C 255.818,322.474 250.818,323.641 245.5,324C 233.099,324.917 220.766,324.417 208.5,322.5C 210.019,319.723 209.352,317.723 206.5,316.5 Z"/></g>
<g><path style="opacity:0.09" fill="#8fdcf2" d="M 111.5,319.5 C 112.931,320.78 113.598,322.447 113.5,324.5C 107.974,324.821 102.64,324.488 97.5,323.5C 102.167,323.5 106.833,323.5 111.5,323.5C 111.5,322.167 111.5,320.833 111.5,319.5 Z"/></g>
<g><path style="opacity:0.545" fill="#ecddd6" d="M 384.5,317.5 C 386.117,318.038 387.784,318.371 389.5,318.5C 390.029,320.583 391.029,322.417 392.5,324C 395.682,324.407 398.849,324.907 402,325.5C 406.347,323.739 410.847,322.739 415.5,322.5C 413.615,324.311 411.281,325.478 408.5,326C 401.645,327.035 394.978,326.368 388.5,324C 386.779,322.056 385.446,319.89 384.5,317.5 Z"/></g>
</svg>
